<mxfile host="app.diagrams.net" agent="Mozilla/5.0 (Macintosh; Intel Mac OS X 10_15_7) AppleWebKit/605.1.15 (KHTML, like Gecko) Version/18.5 Safari/605.1.15" version="28.0.6">
  <diagram name="Architecture" id="architecture">
    <mxGraphModel dx="983" dy="572" grid="1" gridSize="10" guides="1" tooltips="1" connect="1" arrows="1" fold="1" page="1" pageScale="1" pageWidth="1169" pageHeight="827" math="0" shadow="0">
      <root>
        <mxCell id="0" />
        <mxCell id="1" parent="0" />
        <mxCell id="title" value="Architecture Système - Gestion Appareils Connectés" style="text;html=1;strokeColor=none;fillColor=none;align=center;verticalAlign=middle;whiteSpace=wrap;rounded=0;fontSize=16;fontStyle=1;" parent="1" vertex="1">
          <mxGeometry x="400" y="20" width="400" height="30" as="geometry" />
        </mxCell>
        <mxCell id="devices_group" value="Appareils Connectés (2M)" style="rounded=1;whiteSpace=wrap;html=1;fillColor=#E1F5FE;strokeColor=#01579B;fontSize=12;fontStyle=1;verticalAlign=top;" parent="1" vertex="1">
          <mxGeometry x="50" y="80" width="200" height="150" as="geometry" />
        </mxCell>
        <mxCell id="device1" value="Radiateur" style="rounded=1;whiteSpace=wrap;html=1;fillColor=#BBDEFB;strokeColor=#1976D2;" parent="1" vertex="1">
          <mxGeometry x="70" y="110" width="70" height="30" as="geometry" />
        </mxCell>
        <mxCell id="device2" value="Pompe à chaleur" style="rounded=1;whiteSpace=wrap;html=1;fillColor=#BBDEFB;strokeColor=#1976D2;" parent="1" vertex="1">
          <mxGeometry x="160" y="110" width="70" height="30" as="geometry" />
        </mxCell>
        <mxCell id="device3" value="Ballon eau chaude" style="rounded=1;whiteSpace=wrap;html=1;fillColor=#BBDEFB;strokeColor=#1976D2;" parent="1" vertex="1">
          <mxGeometry x="70" y="150" width="70" height="30" as="geometry" />
        </mxCell>
        <mxCell id="device4" value="... autres" style="rounded=1;whiteSpace=wrap;html=1;fillColor=#BBDEFB;strokeColor=#1976D2;" parent="1" vertex="1">
          <mxGeometry x="160" y="150" width="70" height="30" as="geometry" />
        </mxCell>
        <mxCell id="messages_info" value="~500 messages/jour/appareil&lt;div&gt;~1B messages/jours&lt;/div&gt;" style="text;html=1;strokeColor=none;fillColor=none;align=center;verticalAlign=middle;whiteSpace=wrap;rounded=0;fontSize=10;fontStyle=2;" parent="1" vertex="1">
          <mxGeometry x="70" y="190" width="160" height="20" as="geometry" />
        </mxCell>
        <mxCell id="gcp_group" value="Google Cloud Platform" style="rounded=1;whiteSpace=wrap;html=1;fillColor=#4285F4;strokeColor=#1A73E8;fontSize=12;fontStyle=1;verticalAlign=top;fontColor=#FFFFFF;" parent="1" vertex="1">
          <mxGeometry x="350" y="80" width="300" height="200" as="geometry" />
        </mxCell>
        <mxCell id="pubsub1" value="Pub/Sub Topic&lt;br&gt;device_update" style="ellipse;whiteSpace=wrap;html=1;fillColor=#FFFFFF;strokeColor=#1A73E8;fontColor=#000000;" parent="1" vertex="1">
          <mxGeometry x="370" y="110" width="120" height="50" as="geometry" />
        </mxCell>
        <mxCell id="pubsub2" value="Pub/Sub Topic&#xa;send_command" style="ellipse;whiteSpace=wrap;html=1;fillColor=#FFFFFF;strokeColor=#1A73E8;fontColor=#000000;" parent="1" vertex="1">
          <mxGeometry x="370" y="200" width="120" height="50" as="geometry" />
        </mxCell>
        <mxCell id="bigquery" value="BigQuery&#xa;device_data" style="shape=cylinder3;whiteSpace=wrap;html=1;boundedLbl=1;backgroundOutline=1;size=15;fillColor=#FFFFFF;strokeColor=#1A73E8;fontColor=#000000;" parent="1" vertex="1">
          <mxGeometry x="535" y="140" width="100" height="70" as="geometry" />
        </mxCell>
        <mxCell id="api_group" value="API REST" style="rounded=1;whiteSpace=wrap;html=1;fillColor=#FFF3E0;strokeColor=#F57C00;fontSize=12;fontStyle=1;verticalAlign=top;" parent="1" vertex="1">
          <mxGeometry x="360" y="320" width="450" height="280" as="geometry" />
        </mxCell>
        <mxCell id="controllers_group" value="Controllers" style="rounded=1;whiteSpace=wrap;html=1;fillColor=#FFE0B2;strokeColor=#F57C00;fontSize=10;fontStyle=1;verticalAlign=top;" parent="1" vertex="1">
          <mxGeometry x="380" y="350" width="190" height="90" as="geometry" />
        </mxCell>
        <mxCell id="controller1" value="MessageController" style="rounded=1;whiteSpace=wrap;html=1;fillColor=#FFCC80;strokeColor=#E65100;fontSize=9;" parent="1" vertex="1">
          <mxGeometry x="390" y="380" width="90" height="20" as="geometry" />
        </mxCell>
        <mxCell id="controller2" value="CommandController" style="rounded=1;whiteSpace=wrap;html=1;fillColor=#FFCC80;strokeColor=#E65100;fontSize=9;" parent="1" vertex="1">
          <mxGeometry x="470" y="410" width="90" height="20" as="geometry" />
        </mxCell>
        <mxCell id="controller3" value="ReportController" style="rounded=1;whiteSpace=wrap;html=1;fillColor=#FFCC80;strokeColor=#E65100;fontSize=9;" parent="1" vertex="1">
          <mxGeometry x="390" y="410" width="70" height="20" as="geometry" />
        </mxCell>
        <mxCell id="data_team" value="Équipe Data&lt;br&gt;Analytics Dashboard&lt;br&gt;(Précision horaire)" style="rounded=1;whiteSpace=wrap;html=1;fillColor=#F3E5F5;strokeColor=#7B1FA2;fontSize=10;fontStyle=1;" parent="1" vertex="1">
          <mxGeometry x="720" y="80" width="140" height="80" as="geometry" />
        </mxCell>
        <mxCell id="arrow1" value="" style="endArrow=classic;html=1;rounded=0;exitX=1;exitY=0.5;exitDx=0;exitDy=0;entryX=0;entryY=0.5;entryDx=0;entryDy=0;strokeWidth=2;strokeColor=#1976D2;edgeStyle=orthogonalEdgeStyle;" parent="1" source="devices_group" target="pubsub1" edge="1">
          <mxGeometry width="50" height="50" relative="1" as="geometry">
            <mxPoint x="260" y="155" as="sourcePoint" />
            <mxPoint x="360" y="135" as="targetPoint" />
          </mxGeometry>
        </mxCell>
        <mxCell id="arrow2" value="" style="endArrow=classic;html=1;rounded=0;exitX=1;exitY=0.5;exitDx=0;exitDy=0;strokeWidth=2;strokeColor=#1976D2;entryX=0.5;entryY=0;entryDx=0;entryDy=0;edgeStyle=orthogonalEdgeStyle;" parent="1" source="pubsub1" target="controllers_group" edge="1">
          <mxGeometry width="50" height="50" relative="1" as="geometry">
            <mxPoint x="430" y="170" as="sourcePoint" />
            <mxPoint x="350" y="320" as="targetPoint" />
          </mxGeometry>
        </mxCell>
        <mxCell id="arrow3" value="" style="endArrow=classic;html=1;rounded=0;exitX=0.646;exitY=-0.007;exitDx=0;exitDy=0;entryX=0.5;entryY=1;entryDx=0;entryDy=0;strokeWidth=2;strokeColor=#F57C00;edgeStyle=orthogonalEdgeStyle;exitPerimeter=0;" parent="1" source="repositories_group" target="bigquery" edge="1">
          <mxGeometry width="50" height="50" relative="1" as="geometry">
            <mxPoint x="545" y="340" as="sourcePoint" />
            <mxPoint x="490" y="270" as="targetPoint" />
            <Array as="points">
              <mxPoint x="720" y="290" />
              <mxPoint x="585" y="290" />
            </Array>
          </mxGeometry>
        </mxCell>
        <mxCell id="arrow4" value="" style="endArrow=classic;html=1;rounded=0;exitX=0.25;exitY=0;exitDx=0;exitDy=0;strokeWidth=2;strokeColor=#F57C00;edgeStyle=orthogonalEdgeStyle;entryX=0.5;entryY=1;entryDx=0;entryDy=0;" parent="1" source="repositories_group" target="pubsub2" edge="1">
          <mxGeometry width="50" height="50" relative="1" as="geometry">
            <mxPoint x="620" y="350" as="sourcePoint" />
            <mxPoint x="570" y="170" as="targetPoint" />
            <Array as="points">
              <mxPoint x="652" y="310" />
              <mxPoint x="430" y="310" />
            </Array>
          </mxGeometry>
        </mxCell>
        <mxCell id="arrow5" value="" style="endArrow=classic;html=1;rounded=0;exitX=0;exitY=0.5;exitDx=0;exitDy=0;entryX=1;entryY=0.5;entryDx=0;entryDy=0;strokeWidth=2;strokeColor=#1976D2;edgeStyle=orthogonalEdgeStyle;" parent="1" source="pubsub2" target="devices_group" edge="1">
          <mxGeometry width="50" height="50" relative="1" as="geometry">
            <mxPoint x="500" y="135" as="sourcePoint" />
            <mxPoint x="260" y="155" as="targetPoint" />
          </mxGeometry>
        </mxCell>
        <mxCell id="arrow6" value="" style="endArrow=classic;html=1;rounded=0;exitX=1;exitY=0.5;exitDx=0;exitDy=0;entryX=0;entryY=0.5;entryDx=0;entryDy=0;strokeWidth=2;strokeColor=#7B1FA2;edgeStyle=orthogonalEdgeStyle;" parent="1" source="bigquery" target="data_team" edge="1">
          <mxGeometry width="50" height="50" relative="1" as="geometry">
            <mxPoint x="550" y="225" as="sourcePoint" />
            <mxPoint x="710" y="120" as="targetPoint" />
          </mxGeometry>
        </mxCell>
        <mxCell id="arrow7" value="" style="endArrow=classic;html=1;rounded=0;entryX=0;entryY=0.5;entryDx=0;entryDy=0;strokeWidth=2;strokeColor=#2E7D32;edgeStyle=orthogonalEdgeStyle;" parent="1" source="endpoints_group" target="controllers_group" edge="1">
          <mxGeometry width="50" height="50" relative="1" as="geometry">
            <mxPoint x="710" y="380" as="sourcePoint" />
            <mxPoint x="250" y="390" as="targetPoint" />
          </mxGeometry>
        </mxCell>
        <mxCell id="label1" value="Messages" style="text;html=1;strokeColor=none;fillColor=none;align=center;verticalAlign=middle;whiteSpace=wrap;rounded=0;fontSize=8;" parent="1" vertex="1">
          <mxGeometry x="270" y="100" width="70" height="30" as="geometry" />
        </mxCell>
        <mxCell id="label2" value="Commandes&#xa;ON/OFF" style="text;html=1;strokeColor=none;fillColor=none;align=center;verticalAlign=middle;whiteSpace=wrap;rounded=0;fontSize=8;" parent="1" vertex="1">
          <mxGeometry x="270" y="220" width="70" height="30" as="geometry" />
        </mxCell>
        <mxCell id="GZ5DpgEYk3kkQtt8ggrh-3" value="" style="group" vertex="1" connectable="0" parent="1">
          <mxGeometry x="610" y="460" width="150" height="110" as="geometry" />
        </mxCell>
        <mxCell id="models_group" value="Models/Schemas" style="rounded=1;whiteSpace=wrap;html=1;fillColor=#FFE0B2;strokeColor=#F57C00;fontSize=10;fontStyle=1;verticalAlign=top;" parent="GZ5DpgEYk3kkQtt8ggrh-3" vertex="1">
          <mxGeometry width="150" height="110" as="geometry" />
        </mxCell>
        <mxCell id="GZ5DpgEYk3kkQtt8ggrh-2" value="" style="group" vertex="1" connectable="0" parent="GZ5DpgEYk3kkQtt8ggrh-3">
          <mxGeometry x="30" y="30" width="90" height="70" as="geometry" />
        </mxCell>
        <mxCell id="model1" value="DeviceMessage" style="rounded=1;whiteSpace=wrap;html=1;fillColor=#FFCC80;strokeColor=#E65100;fontSize=9;" parent="GZ5DpgEYk3kkQtt8ggrh-2" vertex="1">
          <mxGeometry x="10" y="50" width="70" height="20" as="geometry" />
        </mxCell>
        <mxCell id="model2" value="CommandMessage" style="rounded=1;whiteSpace=wrap;html=1;fillColor=#FFCC80;strokeColor=#E65100;fontSize=9;" parent="GZ5DpgEYk3kkQtt8ggrh-2" vertex="1">
          <mxGeometry width="90" height="20" as="geometry" />
        </mxCell>
        <mxCell id="model3" value="Report" style="rounded=1;whiteSpace=wrap;html=1;fillColor=#FFCC80;strokeColor=#E65100;fontSize=9;" parent="GZ5DpgEYk3kkQtt8ggrh-2" vertex="1">
          <mxGeometry x="20" y="25" width="50" height="20" as="geometry" />
        </mxCell>
        <mxCell id="GZ5DpgEYk3kkQtt8ggrh-5" value="" style="group" vertex="1" connectable="0" parent="1">
          <mxGeometry x="380" y="470" width="190" height="100" as="geometry" />
        </mxCell>
        <mxCell id="services_group" value="Services" style="rounded=1;whiteSpace=wrap;html=1;fillColor=#FFE0B2;strokeColor=#F57C00;fontSize=10;fontStyle=1;verticalAlign=top;" parent="GZ5DpgEYk3kkQtt8ggrh-5" vertex="1">
          <mxGeometry width="190" height="100" as="geometry" />
        </mxCell>
        <mxCell id="GZ5DpgEYk3kkQtt8ggrh-4" value="" style="group" vertex="1" connectable="0" parent="GZ5DpgEYk3kkQtt8ggrh-5">
          <mxGeometry x="15.833333333333334" y="30" width="163.61111111111111" height="50" as="geometry" />
        </mxCell>
        <mxCell id="service1" value="MessageService" style="rounded=1;whiteSpace=wrap;html=1;fillColor=#FFCC80;strokeColor=#E65100;fontSize=9;" parent="GZ5DpgEYk3kkQtt8ggrh-4" vertex="1">
          <mxGeometry width="73.8888888888889" height="20" as="geometry" />
        </mxCell>
        <mxCell id="service2" value="CommandService" style="rounded=1;whiteSpace=wrap;html=1;fillColor=#FFCC80;strokeColor=#E65100;fontSize=9;" parent="GZ5DpgEYk3kkQtt8ggrh-4" vertex="1">
          <mxGeometry x="79.16666666666667" width="84.44444444444444" height="20" as="geometry" />
        </mxCell>
        <mxCell id="service3" value="ReportService" style="rounded=1;whiteSpace=wrap;html=1;fillColor=#FFCC80;strokeColor=#E65100;fontSize=9;" parent="GZ5DpgEYk3kkQtt8ggrh-4" vertex="1">
          <mxGeometry y="30" width="73.8888888888889" height="20" as="geometry" />
        </mxCell>
        <mxCell id="GZ5DpgEYk3kkQtt8ggrh-7" value="" style="group" vertex="1" connectable="0" parent="1">
          <mxGeometry x="610" y="350" width="170" height="80" as="geometry" />
        </mxCell>
        <mxCell id="repositories_group" value="Repositories" style="rounded=1;whiteSpace=wrap;html=1;fillColor=#FFE0B2;strokeColor=#F57C00;fontSize=10;fontStyle=1;verticalAlign=top;" parent="GZ5DpgEYk3kkQtt8ggrh-7" vertex="1">
          <mxGeometry width="170" height="80" as="geometry" />
        </mxCell>
        <mxCell id="repo1" value="BigQueryRepository" style="rounded=1;whiteSpace=wrap;html=1;fillColor=#FFCC80;strokeColor=#E65100;fontSize=9;" parent="GZ5DpgEYk3kkQtt8ggrh-7" vertex="1">
          <mxGeometry x="40" y="30" width="90" height="20" as="geometry" />
        </mxCell>
        <mxCell id="repo2" value="PubSubRepository" style="rounded=1;whiteSpace=wrap;html=1;fillColor=#FFCC80;strokeColor=#E65100;fontSize=9;" parent="GZ5DpgEYk3kkQtt8ggrh-7" vertex="1">
          <mxGeometry x="45" y="54" width="80" height="20" as="geometry" />
        </mxCell>
        <mxCell id="GZ5DpgEYk3kkQtt8ggrh-13" value="" style="group" vertex="1" connectable="0" parent="1">
          <mxGeometry x="50" y="360" width="180" height="120" as="geometry" />
        </mxCell>
        <mxCell id="endpoints_group" value="API Endpoints" style="rounded=1;whiteSpace=wrap;html=1;fillColor=#E8F5E8;strokeColor=#2E7D32;fontSize=12;fontStyle=1;verticalAlign=top;" parent="GZ5DpgEYk3kkQtt8ggrh-13" vertex="1">
          <mxGeometry width="180" height="120" as="geometry" />
        </mxCell>
        <mxCell id="GZ5DpgEYk3kkQtt8ggrh-12" value="" style="group" vertex="1" connectable="0" parent="GZ5DpgEYk3kkQtt8ggrh-13">
          <mxGeometry x="7.5" y="40" width="165" height="57.5" as="geometry" />
        </mxCell>
        <mxCell id="endpoint1" value="POST /message" style="rounded=1;whiteSpace=wrap;html=1;fillColor=#C8E6C9;strokeColor=#388E3C;fontSize=10;" parent="GZ5DpgEYk3kkQtt8ggrh-12" vertex="1">
          <mxGeometry width="80" height="25" as="geometry" />
        </mxCell>
        <mxCell id="endpoint2" value="POST /send" style="rounded=1;whiteSpace=wrap;html=1;fillColor=#C8E6C9;strokeColor=#388E3C;fontSize=10;" parent="GZ5DpgEYk3kkQtt8ggrh-12" vertex="1">
          <mxGeometry y="32.5" width="80" height="25" as="geometry" />
        </mxCell>
        <mxCell id="endpoint3" value="GET /report" style="rounded=1;whiteSpace=wrap;html=1;fillColor=#C8E6C9;strokeColor=#388E3C;fontSize=10;" parent="GZ5DpgEYk3kkQtt8ggrh-12" vertex="1">
          <mxGeometry x="85" y="17.5" width="80" height="25" as="geometry" />
        </mxCell>
      </root>
    </mxGraphModel>
  </diagram>
</mxfile>
